
<svg xmlns="http://www.w3.org/2000/svg" style="display:none">
  <symbol id="search" viewBox="0 0 24 24" fill="none" stroke="currentColor" stroke-width="2" stroke-linecap="round" stroke-linejoin="round"><circle cx="11" cy="11" r="8"></circle><path d="m21 21-4.35-4.35"></path></symbol>
  <symbol id="chevron-down" viewBox="0 0 24 24" fill="none" stroke="currentColor" stroke-width="2" stroke-linecap="round" stroke-linejoin="round"><path d="m6 9 6 6 6-6"></path></symbol>
  <symbol id="chevron-right" viewBox="0 0 24 24" fill="none" stroke="currentColor" stroke-width="2" stroke-linecap="round" stroke-linejoin="round"><path d="m9 18 6-6-6-6"></path></symbol>
  <symbol id="arrow-up" viewBox="0 0 24 24" fill="none" stroke="currentColor" stroke-width="2" stroke-linecap="round" stroke-linejoin="round"><path d="M12 19V5"></path><path d="m5 12 7-7 7 7"></path></symbol>
  <symbol id="arrow-down" viewBox="0 0 24 24" fill="none" stroke="currentColor" stroke-width="2" stroke-linecap="round" stroke-linejoin="round"><path d="M12 5v14"></path><path d="m19 12-7 7-7-7"></path></symbol>
  <symbol id="triangle-up" viewBox="0 0 12 12" fill="currentColor"><path d="M6 2l5 8H1z"></path></symbol>
  <symbol id="triangle-down" viewBox="0 0 12 12" fill="currentColor"><path d="M6 10L1 2h10z"></path></symbol>
  <symbol id="globe" viewBox="0 0 24 24" fill="none" stroke="currentColor" stroke-width="2" stroke-linecap="round" stroke-linejoin="round"><circle cx="12" cy="12" r="10"></circle><path d="M12 2a14.5 14.5 0 0 0 0 20 14.5 14.5 0 0 0 0-20"></path><path d="M2 12h20"></path></symbol>
  <symbol id="moon" viewBox="0 0 24 24" fill="none" stroke="currentColor" stroke-width="2" stroke-linecap="round" stroke-linejoin="round"><path d="M21 12.79A9 9 0 1 1 11.21 3 7 7 0 0 0 21 12.79z"></path></symbol>
  <symbol id="bell" viewBox="0 0 24 24" fill="none" stroke="currentColor" stroke-width="2" stroke-linecap="round" stroke-linejoin="round"><path d="M6 8a6 6 0 0 1 12 0c0 7 3 9 3 9H3s3-2 3-9"></path><path d="M10.3 21a1.94 1.94 0 0 0 3.4 0"></path></symbol>
  <symbol id="user" viewBox="0 0 24 24" fill="none" stroke="currentColor" stroke-width="2" stroke-linecap="round" stroke-linejoin="round"><path d="M19 21v-2a4 4 0 0 0-4-4H9a4 4 0 0 0-4 4v2"></path><circle cx="12" cy="7" r="4"></circle></symbol>
  <symbol id="download" viewBox="0 0 24 24" fill="none" stroke="currentColor" stroke-width="2" stroke-linecap="round" stroke-linejoin="round"><path d="M21 15v4a2 2 0 0 1-2 2H5a2 2 0 0 1-2-2v-4"></path><polyline points="7 10 12 15 17 10"></polyline><line x1="12" y1="15" x2="12" y2="3"></line></symbol>
  <symbol id="qr" viewBox="0 0 24 24" fill="none" stroke="currentColor" stroke-width="2" stroke-linecap="round" stroke-linejoin="round"><rect x="3" y="3" width="7" height="7" rx="1"></rect><rect x="14" y="3" width="7" height="7" rx="1"></rect><rect x="3" y="14" width="7" height="7" rx="1"></rect><path d="M14 14h3v3h-3zM18 18h3v3h-3z"></path></symbol>
  <symbol id="shield" viewBox="0 0 24 24" fill="none" stroke="currentColor" stroke-width="2" stroke-linecap="round" stroke-linejoin="round"><path d="M12 22s8-4 8-10V5l-8-3-8 3v7c0 6 8 10 8 10z"></path></symbol>
  <symbol id="check" viewBox="0 0 24 24" fill="none" stroke="currentColor" stroke-width="2" stroke-linecap="round" stroke-linejoin="round"><polyline points="20 6 9 17 4 12"></polyline></symbol>
  <symbol id="plus" viewBox="0 0 24 24" fill="none" stroke="currentColor" stroke-width="2" stroke-linecap="round" stroke-linejoin="round"><path d="M5 12h14"></path><path d="M12 5v14"></path></symbol>
  <symbol id="star" viewBox="0 0 24 24" fill="none" stroke="currentColor" stroke-width="2" stroke-linecap="round" stroke-linejoin="round"><polygon points="12 2 15.1 8.6 22 9.3 17 14.1 18.2 21 12 17.8 5.8 21 7 14.1 2 9.3 8.9 8.6"></polygon></symbol>
  <symbol id="apple" viewBox="0 0 24 24" fill="currentColor"><path d="M16.4 2c.1 1-.4 2-1 2.7-.7.8-1.7 1.4-2.7 1.3-.1-1 .4-2 1-2.6.7-.8 1.8-1.4 2.7-1.4zM20 17.3c-.6 1.4-1 2-1.7 3.2-1.1 1.6-2.6 3.6-4.5 3.6-1.7 0-2.1-1.1-4.4-1.1-2.3 0-2.8 1.1-4.4 1.1-1.9 0-3.4-1.8-4.5-3.4C-.4 16.7-1 11.9 1 8.9c1.4-2.1 3.6-3.4 5.7-3.4 2.1 0 3.4 1.2 5.2 1.2 1.7 0 2.7-1.2 5.2-1.2 1.9 0 3.9 1 5.3 2.8-4.6 2.6-3.9 9.4-2.4 9z"></path></symbol>
  <symbol id="x" viewBox="0 0 24 24" fill="none" stroke="currentColor" stroke-width="2" stroke-linecap="round" stroke-linejoin="round"><path d="M18 6 6 18"></path><path d="m6 6 12 12"></path></symbol>
  <symbol id="image" viewBox="0 0 24 24" fill="none" stroke="currentColor" stroke-width="2" stroke-linecap="round" stroke-linejoin="round"><rect x="3" y="3" width="18" height="18" rx="2"></rect><circle cx="9" cy="9" r="2"></circle><path d="m21 15-3.086-3.086a2 2 0 0 0-2.828 0L6 21"></path></symbol>
  <symbol id="upload" viewBox="0 0 24 24" fill="none" stroke="currentColor" stroke-width="2" stroke-linecap="round" stroke-linejoin="round"><path d="M21 15v4a2 2 0 0 1-2 2H5a2 2 0 0 1-2-2v-4"></path><polyline points="17 8 12 3 7 8"></polyline><line x1="12" y1="3" x2="12" y2="15"></line></symbol>
  <symbol id="play-store" viewBox="0 0 24 24" fill="currentColor"><path d="M3.6 1.7c-.4.4-.6.9-.6 1.6v17.4c0 .7.2 1.2.6 1.6l.1.1L13 13v-.2-.2L3.7 1.7zM16.8 16L13.7 13l-9.6-5.4 13.5 7.7L20.7 13l-3.9 3zm-13.2 6.4c-.5-.5-.5-1.4 0-1.8L13.5 13l3.3 3.3-13.2 7.5z"></path></symbol>
</svg>